<svg xmlns="http://www.w3.org/2000/svg" width="149" height="48" viewBox="0 0 149 48">
  <g id="Group_783" data-name="Group 783" transform="translate(-250 0)">
    <g id="Group_673" data-name="Group 673" transform="translate(250 0)">
      <g id="Group_672" data-name="Group 672" transform="translate(0.002)">
        <path id="Path_188" data-name="Path 188" d="M378.452,62.123a33.92,33.92,0,0,1,1.954,48H453.2v-48Z" transform="translate(-311.814 -62.123)" fill="#eb2027"/>
        <path id="Path_189" data-name="Path 189" d="M352.987,62.123H331.5v48h19.531a33.911,33.911,0,0,1,1.955-48Z" transform="translate(-331.501 -62.123)" fill="#eb2027"/>
        <path id="Path_190" data-name="Path 190" d="M399.391,62.123H349.377a33.911,33.911,0,0,0-1.955,48h53.924a33.92,33.92,0,0,0-1.954-48Z" transform="translate(-327.891 -62.123)" fill="#fff"/>
      </g>
      <path id="Path_191" data-name="Path 191" d="M417.016,89.08V77.419a4.176,4.176,0,0,0-3.78-1.893c-3.541,0-5.676,3.168-5.758,6.218-.079,2.743,1.13,5.368,3.784,5.368a3.007,3.007,0,0,0,2.295-1.08l1.692,1.428a4.771,4.771,0,0,1-3.987,1.812c-4.147,0-6.238-3.091-6.2-7.529a8.209,8.209,0,0,1,7.968-8.383c3.749,0,5.52,1.741,6.405,3.324V89.08Z" transform="translate(-297.898 -57.084)" fill="#fff"/>
      <path id="Path_192" data-name="Path 192" d="M407.039,87.647a8.093,8.093,0,0,1-1.949-5.9,8.732,8.732,0,0,1,2.278-5.84,7.631,7.631,0,0,1,5.67-2.52c3.008,0,5.152,1.113,6.381,3.306V89.065h-2.373V77.414a4.214,4.214,0,0,0-3.8-1.9,5.35,5.35,0,0,0-4.192,1.974,7.01,7.01,0,0,0-1.585,4.266,6.078,6.078,0,0,0,1.384,4.393,3.27,3.27,0,0,0,2.42,1,3,3,0,0,0,2.295-1.077c.033.026,1.625,1.374,1.658,1.4a4.731,4.731,0,0,1-3.953,1.789,5.714,5.714,0,0,1-4.231-1.611m.3-11.769a8.772,8.772,0,0,0-2.286,5.874,8.1,8.1,0,0,0,1.962,5.93A5.755,5.755,0,0,0,411.27,89.3a4.773,4.773,0,0,0,4-1.824l.014-.015-1.721-1.459-.015.017a2.982,2.982,0,0,1-2.28,1.075,3.2,3.2,0,0,1-2.388-.988,6.02,6.02,0,0,1-1.371-4.357,6.97,6.97,0,0,1,1.57-4.241,5.323,5.323,0,0,1,4.162-1.957A4.173,4.173,0,0,1,417,77.433v11.68h2.459V76.689l0-.006c-1.235-2.211-3.395-3.334-6.422-3.334a7.673,7.673,0,0,0-5.7,2.53" transform="translate(-297.905 -57.091)" fill="#fff"/>
      <path id="Path_193" data-name="Path 193" d="M403.534,89.339V79.257c0-2.121-1.613-3.474-3.947-3.474-2.252,0-4.91,1.468-4.91,3.436v10.12h-2.414V73.889h2.414v1.585a7.554,7.554,0,0,1,4.99-1.853c3.583,0,6.28,2.05,6.28,5.371V89.339Z" transform="translate(-303.122 -56.963)" fill="#fff"/>
      <path id="Path_194" data-name="Path 194" d="M394.7,75.5a7.54,7.54,0,0,1,4.978-1.847,7,7,0,0,1,4.468,1.433A4.905,4.905,0,0,1,405.937,79V89.323h-2.373V79.266a3.27,3.27,0,0,0-1.106-2.549,4.279,4.279,0,0,0-2.863-.947,6.324,6.324,0,0,0-3.312.985,3.061,3.061,0,0,0-1.62,2.472v10.1h-2.371v-15.4h2.371v1.608Zm.008-.062V73.875h-2.459V89.369h2.459V79.226a3.027,3.027,0,0,1,1.6-2.438,6.308,6.308,0,0,1,3.286-.976,4.239,4.239,0,0,1,2.836.938,3.226,3.226,0,0,1,1.089,2.516v10.1h2.458V79a4.949,4.949,0,0,0-1.8-3.95,7.043,7.043,0,0,0-4.5-1.442,7.567,7.567,0,0,0-4.971,1.827" transform="translate(-303.131 -56.97)" fill="#fff"/>
      <path id="Path_195" data-name="Path 195" d="M400.465,89.549a4.63,4.63,0,0,1-3.34-1.273V86.73h-1.206V84.916h3.623v2.7a2.271,2.271,0,0,0,.923.228c.606,0,1.09-.228,1.09-.731v-2.2h2.411v2.315c0,1.468-1.687,2.318-3.5,2.318" transform="translate(-301.268 -51.478)" fill="#fff"/>
      <path id="Path_196" data-name="Path 196" d="M403.953,84.941v2.3c0,1.506-1.75,2.3-3.481,2.3a4.578,4.578,0,0,1-3.314-1.262V86.713h-1.212V84.941h3.582v2.7l.012.006a2.242,2.242,0,0,0,.932.233c.687,0,1.112-.291,1.112-.752V84.941Zm.02-.04h-2.434v2.225c0,.443-.4.707-1.068.707a2.252,2.252,0,0,1-.9-.219V84.9h-3.664v1.858h1.208v1.532l.006.006a4.613,4.613,0,0,0,3.352,1.282c1.754,0,3.525-.8,3.525-2.341V84.9Z" transform="translate(-301.275 -51.486)" fill="#fff"/>
      <rect id="Rectangle_754" data-name="Rectangle 754" width="2.416" height="15.449" transform="translate(104.557 16.921)" fill="#fff"/>
      <path id="Path_197" data-name="Path 197" d="M404.962,89.231h-2.368v-15.4h2.368Zm.018-15.448h-2.434V89.277h2.461V73.783Z" transform="translate(-298.01 -56.884)" fill="#fff"/>
      <path id="Path_198" data-name="Path 198" d="M423.176,89.285c-4.951,0-7.485-2.354-7.485-5.214a4.651,4.651,0,0,1,2.854-3.979,3.332,3.332,0,0,1-2.493-2.933c0-2.161,2.252-3.743,5.111-3.743a7.5,7.5,0,0,1,2.615.423V75.96a11.881,11.881,0,0,0-2.575-.384c-1.368,0-2.657.5-2.657,1.582,0,1.275,1.733,1.7,3.142,1.7h2.091V81.02h-1.728c-1.812,0-3.865,1.16-3.865,3.012,0,1.894,2.012,3.091,4.992,3.091a7.846,7.846,0,0,0,4.349-1.272V73.608h2.411V86.736s-2.05,2.549-6.76,2.549" transform="translate(-292.34 -57.059)" fill="#fff"/>
      <path id="Path_199" data-name="Path 199" d="M417.6,87.741a4.512,4.512,0,0,1-1.876-3.661,4.632,4.632,0,0,1,2.842-3.955l.058-.026-.058-.02a3.306,3.306,0,0,1-2.479-2.915c0-2.121,2.187-3.723,5.088-3.723a7.663,7.663,0,0,1,2.6.419v2.085l-.478-.1a9.019,9.019,0,0,0-2.079-.283c-1.334,0-2.677.5-2.677,1.6,0,1.272,1.7,1.722,3.161,1.722h2.073v2.12h-1.712a4.644,4.644,0,0,0-2.622.816,2.713,2.713,0,0,0-1.259,2.217,2.605,2.605,0,0,0,1.386,2.272,6.983,6.983,0,0,0,3.624.839,7.823,7.823,0,0,0,4.346-1.269l.023-.014V73.635h2.373v13.1A6.24,6.24,0,0,1,428.317,88a10.211,10.211,0,0,1-5.134,1.27,9.253,9.253,0,0,1-5.587-1.532m-1.559-10.576a3.35,3.35,0,0,0,2.459,2.942,4.667,4.667,0,0,0-2.82,3.973,4.559,4.559,0,0,0,1.9,3.7,9.288,9.288,0,0,0,5.612,1.538,10.233,10.233,0,0,0,5.16-1.276,6.248,6.248,0,0,0,1.62-1.279l.006-.006V73.6h-2.458V85.842l0,.006a7.79,7.79,0,0,1-4.323,1.262,7.008,7.008,0,0,1-3.6-.831,2.581,2.581,0,0,1-1.369-2.239c0-1.788,1.99-2.988,3.844-2.988h1.753V78.845h-2.114c-1.441,0-3.12-.439-3.12-1.68,0-1.075,1.326-1.559,2.636-1.559a9.27,9.27,0,0,1,2.071.28l.527.111V73.83l-.014,0a7.6,7.6,0,0,0-2.624-.426c-2.924,0-5.134,1.619-5.134,3.766" transform="translate(-292.348 -57.067)" fill="#fff"/>
      <path id="Path_200" data-name="Path 200" d="M427.1,71.892c-.806,0-1.249.306-1.249.967v.419h-2.415v-.693c0-1.584,1.206-2.24,2.738-2.24h2.089v1.547Z" transform="translate(-288.293 -58.266)" fill="#fff"/>
      <path id="Path_201" data-name="Path 201" d="M428.251,70.332H426.16c-1.754,0-2.759.824-2.759,2.26v.717h2.461v-.443c0-.629.413-.947,1.224-.947h1.188l-.023-1.587Z" transform="translate(-288.309 -58.273)" fill="#fff"/>
      <path id="Path_202" data-name="Path 202" d="M378.444,67.53c6.554,0,9.373,1.438,9.373,2.51,0,1.485-.358-.565-10.4-.565-17.215,0-40.792,4.41-40.792,9.122,0,2.565,2.459,3.078,3.8,7.278,0,0,.408,3.9,1.226,5.022s1.643,1.742,1.643,2.97c0,.72-.515.824-1.23.824-1.639,0-3.443-3.932-3.792-5.741-.924-4.815-2.72-6.972-4.3-9.224-5.126-7.278,22.953-12.2,44.479-12.2" transform="translate(-330.531 -59.9)" fill="#231f20"/>
      <path id="Path_203" data-name="Path 203" d="M339.718,92.494a13.064,13.064,0,0,1-1.406-3.539,19.293,19.293,0,0,0-3.87-8.618l-.439-.62a2.622,2.622,0,0,1-.3-2.883c.7-1.342,2.587-2.627,5.615-3.815A62.437,62.437,0,0,1,350.227,70.1a160.933,160.933,0,0,1,28.228-2.522c6.8,0,9.341,1.518,9.341,2.478,0,.27-.012.414-.085.474-.1.075-.344.015-.822-.111a35.374,35.374,0,0,0-9.46-.959,140.746,140.746,0,0,0-26.857,2.793,54.764,54.764,0,0,0-9.995,2.915c-2.635,1.145-3.972,2.306-3.972,3.445a4.616,4.616,0,0,0,1.409,3.055,12.091,12.091,0,0,1,2.386,4.231c.018.19.422,3.918,1.235,5.032.2.277.394.516.585.752a3.335,3.335,0,0,1,1.046,2.2c0,.659-.437.79-1.194.79-.705,0-1.543-.775-2.354-2.175m10.5-22.461a62.511,62.511,0,0,0-10.927,2.928c-3.043,1.191-4.945,2.487-5.647,3.844a2.681,2.681,0,0,0,.308,2.95l.44.62a19.215,19.215,0,0,1,3.859,8.6c.338,1.757,2.132,5.763,3.824,5.763.638,0,1.261-.064,1.261-.854a3.393,3.393,0,0,0-1.061-2.245c-.189-.233-.385-.472-.583-.745-.806-1.106-1.221-4.968-1.224-5.006v0l0,0a12.191,12.191,0,0,0-2.4-4.259,4.553,4.553,0,0,1-1.393-3.009c0-2.143,5.071-4.436,13.911-6.294a140.388,140.388,0,0,1,26.845-2.793,34.984,34.984,0,0,1,9.445.959c.516.131.752.195.879.1.091-.075.111-.219.111-.524,0-.609-.818-1.229-2.251-1.69a23.659,23.659,0,0,0-7.158-.854,161.239,161.239,0,0,0-28.24,2.525" transform="translate(-330.542 -59.911)" fill="#231f20"/>
      <path id="Path_204" data-name="Path 204" d="M343.114,76.329c1.537,0,2.33,2.432,2.33,3.969s-.3,2.919,1.384,1.3c1.837-1.751,2.108-2.178,3-2.919a1.656,1.656,0,0,1,2.612,0c2.306,2,1.229,5.536,3.382,5.536.615,0,1.075-.615,2.228-1.61s5.766-4.7,6.922-5.463a4.886,4.886,0,0,1,2.609-1.154,1.8,1.8,0,0,1,1.617,1.54c0,.69-1,1.151-2.537,2.464s-5.764,4.759-6.687,5.531a5.681,5.681,0,0,1-3.076,1.457c-.92,0-3.3-1.457-4.226-2.534s-1-2.385-1.613-2.385-.771.614-1.616,1.538-3.306,3.306-4.535,3.306a3.039,3.039,0,0,1-2.766-2.767,37.06,37.06,0,0,0-.079-5.225c-.228-.772-.358-2.587,1.051-2.587" transform="translate(-326.051 -55.774)" fill="#231f20"/>
      <path id="Path_205" data-name="Path 205" d="M357.331,83.319c.216-.2.463-.428.752-.678,1.125-.976,5.738-4.674,6.912-5.46a4.875,4.875,0,0,1,2.595-1.148,1.785,1.785,0,0,1,1.585,1.509c0,.46-.483.828-1.284,1.441-.362.279-.774.592-1.246,1-.947.8-2.925,2.431-4.518,3.74-.975.8-1.812,1.5-2.164,1.788a5.7,5.7,0,0,1-3.055,1.454c-.9,0-3.256-1.419-4.2-2.528a5.954,5.954,0,0,1-.862-1.463c-.244-.539-.42-.93-.772-.93-.429,0-.64.279-.985.742a9.435,9.435,0,0,1-.658.806c-.78.856-3.282,3.3-4.509,3.3a3.006,3.006,0,0,1-2.732-2.734c0-.387.008-.885.021-1.409a20.561,20.561,0,0,0-.1-3.827,2.775,2.775,0,0,1,.16-2.149,1.01,1.01,0,0,1,.86-.393c1.48,0,2.3,2.327,2.3,3.934l-.009.629c-.021.722-.04,1.288.235,1.407.224.1.6-.116,1.212-.707.862-.816,1.369-1.34,1.776-1.756a15.268,15.268,0,0,1,1.226-1.162,1.626,1.626,0,0,1,2.572,0,6,6,0,0,1,1.695,3.347c.311,1.223.556,2.2,1.706,2.2.472,0,.856-.356,1.5-.944m7.63-6.19c-1.177.784-5.8,4.485-6.921,5.463-.289.251-.538.477-.752.676-.629.58-1.01.93-1.454.93-1.1,0-1.337-.95-1.639-2.147a6.148,6.148,0,0,0-1.722-3.382,1.683,1.683,0,0,0-2.654,0,14.678,14.678,0,0,0-1.23,1.168c-.408.416-.912.935-1.771,1.754-.577.554-.955.781-1.144.693-.23-.1-.215-.676-.2-1.346l.014-.629c0-1.634-.842-4-2.364-4a1.073,1.073,0,0,0-.914.422,2.857,2.857,0,0,0-.169,2.21,20.676,20.676,0,0,1,.1,3.806c-.011.524-.023,1.022-.023,1.409a3.078,3.078,0,0,0,2.8,2.8c1.256,0,3.716-2.4,4.56-3.315.283-.311.49-.589.659-.813.337-.445.536-.713.934-.713.309,0,.478.373.713.891a5.947,5.947,0,0,0,.874,1.479c.955,1.118,3.34,2.548,4.252,2.548a5.771,5.771,0,0,0,3.1-1.465c.353-.294,1.191-.99,2.165-1.789,1.59-1.308,3.57-2.938,4.518-3.745.469-.4.883-.713,1.246-.99.812-.624,1.305-1,1.305-1.5a1.826,1.826,0,0,0-1.649-1.572,4.876,4.876,0,0,0-2.63,1.157" transform="translate(-326.062 -55.784)" fill="#231f20"/>
      <path id="Path_206" data-name="Path 206" d="M359.758,88.28c-1,0-1.846-.539-1.846-1.38s.463-1.08,1.771-1.619,6.149-2.38,9.454-2.38c1.917,0,3.842-.155,3.842-.842s-1.537-1-4.226-1.081-5.309.39-5.309-1,1.617-1.616,3.23-1.616,4.154.618,6.075.464c1.153-1.846,4.92-5.463,8.3-5.463,1.765,0,4.148,1.46,4.148,2.153s-1.151.387-2.383.387-4.38,1.307-6.3,3.609a1.232,1.232,0,0,0,.078,2,5.337,5.337,0,0,1,1.69,2.692c0,.69,0,1.153-2.306,1.226s-6.457-.073-8.918.693-5.763,2.152-7.3,2.152" transform="translate(-319.334 -57.058)" fill="#231f20"/>
      <path id="Path_207" data-name="Path 207" d="M372.764,78.87l.015,0,.008-.012a14.282,14.282,0,0,1,3.309-3.414,8.949,8.949,0,0,1,4.966-2.03c1.765,0,4.116,1.456,4.116,2.118a.348.348,0,0,1-.1.268c-.21.2-.737.161-1.349.123-.289-.017-.589-.037-.9-.037a10.661,10.661,0,0,0-6.329,3.621,1.261,1.261,0,0,0,.084,2.042,5.345,5.345,0,0,1,1.68,2.673c0,.67,0,1.119-2.274,1.191-.486.015-1.06.023-1.671.027a29.1,29.1,0,0,0-7.257.664c-.714.224-1.514.509-2.293.778a20.261,20.261,0,0,1-5,1.374c-1.051,0-1.815-.565-1.815-1.346,0-.822.451-1.049,1.75-1.584.6-.247,5.907-2.38,9.445-2.38,2.606,0,3.873-.286,3.873-.876,0-.675-1.352-1.029-4.258-1.115-.62-.018-1.227-.006-1.817.008-1.479.026-2.755.049-3.242-.429a.721.721,0,0,1-.212-.541c0-1.4,1.7-1.584,3.193-1.584a19.722,19.722,0,0,1,2.394.222,18.713,18.713,0,0,0,3.684.241m3.289-3.478a14.363,14.363,0,0,0-3.312,3.413,18.512,18.512,0,0,1-3.65-.242,20.783,20.783,0,0,0-2.4-.219c-1.517,0-3.26.186-3.26,1.648a.8.8,0,0,0,.232.589c.506.5,1.8.472,3.289.443.589-.011,1.2-.021,1.817-.006,2.82.085,4.194.426,4.194,1.051,0,.533-1.281.806-3.809.806-3.551,0-8.874,2.141-9.468,2.388-1.331.55-1.791.783-1.791,1.646,0,.818.792,1.415,1.879,1.415a20.579,20.579,0,0,0,5.022-1.377c.774-.276,1.578-.554,2.289-.778a29,29,0,0,1,7.237-.665c.611,0,1.185-.009,1.671-.026,2.341-.072,2.341-.545,2.341-1.256,0-.751-.918-1.933-1.7-2.717a1.2,1.2,0,0,1-.079-1.958,10.592,10.592,0,0,1,6.277-3.6c.309,0,.609.02.9.04.652.038,1.17.072,1.4-.143a.419.419,0,0,0,.12-.317c0-.344-.562-.883-1.428-1.361a6.132,6.132,0,0,0-2.753-.821,8.986,8.986,0,0,0-5.009,2.045" transform="translate(-319.345 -57.068)" fill="#231f20"/>
      <path id="Path_208" data-name="Path 208" d="M380.643,80.767c2.079,0,2.153,1.311,4.074,1.846a7.613,7.613,0,0,0,3.614.46c1.383-.385,1.92.155,1.92.542,0,1.459-3.149,4.537.306,4.537.691,0,1.384-.306,2.312-2.079s3.143-5.306,3.143-6.381S394.944,77,394.323,77s-.993.69-1.613,1.305a6.682,6.682,0,0,1-4.687,1.922c-4.151,0-4.535-2.537-8.761-2.537-2.077,0-4.844.847-4.844,4.151,0,2.383,2.539,4.535,3.535,4.535a3.289,3.289,0,0,0,2.542-2.688c0-1.153,0-1.693-.464-1.847-.076-.612-.076-1.077.614-1.077" transform="translate(-311.609 -55.315)" fill="#231f20"/>
      <path id="Path_209" data-name="Path 209" d="M392.745,78.341c.164-.161.308-.324.448-.489.381-.431.707-.807,1.141-.807.588,0,1.657,1.566,1.657,2.657,0,.777-1.209,2.915-2.181,4.634-.368.643-.714,1.255-.964,1.73-.892,1.71-1.553,2.062-2.278,2.062-.792,0-1.278-.163-1.477-.489-.324-.521.126-1.419.565-2.281a4.646,4.646,0,0,0,.64-1.735.615.615,0,0,0-.263-.474,1.876,1.876,0,0,0-1.7-.1,6.932,6.932,0,0,1-3.344-.387l-.254-.07a4.684,4.684,0,0,1-1.767-.962,3.264,3.264,0,0,0-2.316-.885.681.681,0,0,0-.541.186,1.211,1.211,0,0,0-.105.926l0,.023.018,0c.437.148.437.673.437,1.815a3.243,3.243,0,0,1-2.505,2.656c-.978,0-3.5-2.138-3.5-4.5,0-3.822,3.681-4.119,4.808-4.119a8.085,8.085,0,0,1,4.41,1.273,7.984,7.984,0,0,0,4.352,1.267,6.7,6.7,0,0,0,4.712-1.934m.4-.528c-.139.158-.282.321-.443.483a6.64,6.64,0,0,1-4.665,1.91,7.853,7.853,0,0,1-4.319-1.258,8.141,8.141,0,0,0-4.444-1.276c-1.142,0-4.873.3-4.873,4.183a4.969,4.969,0,0,0,1.4,3.18,3.818,3.818,0,0,0,2.165,1.389,3.327,3.327,0,0,0,2.572-2.723c0-1.16,0-1.7-.463-1.866a2.968,2.968,0,0,1-.035-.407.681.681,0,0,1,.126-.454.627.627,0,0,1,.49-.163,3.2,3.2,0,0,1,2.28.87,4.682,4.682,0,0,0,1.783.978l.257.069a6.941,6.941,0,0,0,3.376.388,1.833,1.833,0,0,1,1.639.085.543.543,0,0,1,.238.423,4.626,4.626,0,0,1-.629,1.706c-.448.877-.9,1.789-.565,2.345.218.349.719.521,1.535.521.746,0,1.428-.359,2.338-2.1.251-.478.6-1.087.961-1.73,1.026-1.82,2.191-3.874,2.191-4.668,0-1.042-1.063-2.723-1.724-2.723-.463,0-.8.385-1.192.833" transform="translate(-311.619 -55.326)" fill="#231f20"/>
      <path id="Path_210" data-name="Path 210" d="M384.259,75.466c0-1.075.771-1.229,2-1.919a17.02,17.02,0,0,1,6.076-1.844c1.229,0,1.229.615,1.229,1s-.617,1.153-2,1.537a12.813,12.813,0,0,0-3.535,1.386c-.927.536-1.464,1.153-2,1.153,0,0-1.77-.075-1.77-1.31" transform="translate(-306.766 -57.654)" fill="#231f20"/>
      <path id="Path_211" data-name="Path 211" d="M384.305,75.477c0-.854.507-1.121,1.348-1.553.189-.1.405-.207.634-.338a17.079,17.079,0,0,1,6.056-1.841c1.2,0,1.2.585,1.2.967s-.627,1.131-1.975,1.506l-.052.014a12.844,12.844,0,0,0-3.486,1.371,10.518,10.518,0,0,0-.892.6,2.166,2.166,0,0,1-1.095.557c-.015,0-1.733-.087-1.733-1.278m1.946-1.946c-.227.125-.442.236-.632.335-.86.449-1.38.714-1.38,1.611,0,1.25,1.782,1.342,1.8,1.345a2.193,2.193,0,0,0,1.131-.57,10.405,10.405,0,0,1,.886-.589,12.661,12.661,0,0,1,3.469-1.366l.059-.015c1.377-.384,2.019-1.16,2.019-1.57,0-.382,0-1.029-1.259-1.029a17.217,17.217,0,0,0-6.092,1.849" transform="translate(-306.776 -57.665)" fill="#231f20"/>
      <rect id="Rectangle_755" data-name="Rectangle 755" width="141.384" height="47.999" transform="translate(0 0)" fill="none"/>
    </g>
    <rect id="Rectangle_756" data-name="Rectangle 756" width="8" height="48" transform="translate(391 0)" fill="#eb2027"/>
  </g>
</svg>
